<svg xmlns="http://www.w3.org/2000/svg"><style>:root svg:not(:target){display:none}</style><svg fill="none" id="icon-close" viewBox="0 0 20 20"><path d="M.293 18.291a1 1 0 1 0 1.414 1.414L10 11.413l8.292 8.292a1 1 0 1 0 1.414-1.414l-8.292-8.292 8.292-8.292A1 1 0 1 0 18.291.293L9.999 8.585 1.707.293A1 1 0 1 0 .293 1.707L8.585 10 .293 18.291z" fill="#fff"></path></svg><svg id="logo" viewBox="0 0 965 310"><path d="M209.381 43.182h14.727V87.09h.58l30.17-43.91h12.92V113h-14.761V69.057h-.511L222.165 113h-12.784V43.182Zm129.946 0V113h-14.591V55.182h-28.227V113h-14.591V43.182h57.409Zm43.807 70.773v-12h3.784c1.886 0 3.409-.228 4.568-.682 1.159-.478 2.079-1.171 2.761-2.08.705-.932 1.296-2.09 1.773-3.477l.852-2.284-25.363-50.25h15.272l16.432 34.364 13.739-34.364h15.068l-24.068 56.114c-1.159 2.59-2.534 4.999-4.125 7.227-1.568 2.227-3.58 4.022-6.034 5.386-2.455 1.364-5.591 2.046-9.409 2.046h-5.25Zm69.289.068c-5.363 0-9.977-1.137-13.841-3.409-3.841-2.296-6.795-5.478-8.863-9.546-2.046-4.068-3.068-8.75-3.068-14.045 0-5.364 1.034-10.069 3.102-14.114 2.091-4.068 5.057-7.239 8.898-9.511 3.84-2.296 8.409-3.444 13.704-3.444 4.568 0 8.568.83 12 2.49 3.432 1.658 6.148 3.988 8.148 6.988 2 3 3.102 6.522 3.307 10.568h-13.705c-.386-2.614-1.409-4.716-3.068-6.307-1.636-1.614-3.784-2.42-6.443-2.42-2.25 0-4.216.613-5.898 1.84-1.659 1.205-2.955 2.966-3.886 5.285-.932 2.318-1.398 5.125-1.398 8.42 0 3.341.454 6.182 1.364 8.523.931 2.34 2.238 4.125 3.92 5.352 1.682 1.227 3.648 1.841 5.898 1.841 1.659 0 3.147-.341 4.466-1.023 1.341-.681 2.443-1.67 3.306-2.965.887-1.319 1.466-2.898 1.739-4.74h13.705c-.228 4-1.319 7.524-3.273 10.569-1.932 3.023-4.602 5.386-8.011 7.091-3.41 1.704-7.444 2.557-12.103 2.557Zm29.114-41.966v-11.42h47.454v11.42h-16.875V113h-13.84V72.057h-16.739ZM551.67 93.84l18.853-33.205h14.318V113H571V79.693L552.216 113h-14.421V60.636h13.875v33.205Zm81.256-12.818v11.42h-27.341v-11.42h27.341Zm-22.568-20.387V113h-13.875V60.636h13.875Zm31.67 0V113h-13.772V60.636h13.772Zm34.927 53.387c-5.296 0-9.875-1.125-13.739-3.375-3.841-2.273-6.807-5.432-8.898-9.478-2.091-4.068-3.136-8.784-3.136-14.147 0-5.41 1.045-10.137 3.136-14.182 2.091-4.068 5.057-7.227 8.898-9.477 3.864-2.273 8.443-3.41 13.739-3.41 5.295 0 9.863 1.137 13.704 3.41 3.864 2.25 6.841 5.409 8.932 9.477 2.091 4.045 3.136 8.773 3.136 14.182 0 5.363-1.045 10.08-3.136 14.147-2.091 4.046-5.068 7.205-8.932 9.478-3.841 2.25-8.409 3.375-13.704 3.375Zm.068-11.25c2.409 0 4.42-.682 6.034-2.046 1.613-1.386 2.829-3.273 3.648-5.659.84-2.386 1.261-5.102 1.261-8.147 0-3.046-.421-5.762-1.261-8.148-.819-2.387-2.035-4.273-3.648-5.66-1.614-1.386-3.625-2.079-6.034-2.079-2.432 0-4.478.693-6.137 2.08-1.636 1.386-2.875 3.272-3.716 5.659-.818 2.386-1.227 5.102-1.227 8.148 0 3.045.409 5.76 1.227 8.147.841 2.386 2.08 4.273 3.716 5.659 1.659 1.364 3.705 2.046 6.137 2.046ZM712.17 113V60.636h22.33c6.455 0 11.557 1.228 15.307 3.682 3.75 2.455 5.625 5.943 5.625 10.466 0 2.841-1.057 5.205-3.171 7.091-2.113 1.886-5.045 3.16-8.795 3.818 3.136.228 5.807.943 8.011 2.148 2.228 1.182 3.921 2.716 5.08 4.602 1.182 1.886 1.773 3.978 1.773 6.273 0 2.977-.796 5.534-2.387 7.67-1.568 2.137-3.875 3.773-6.92 4.909-3.023 1.137-6.716 1.705-11.08 1.705H712.17Zm13.535-10.875h12.238c2.023 0 3.602-.477 4.739-1.432 1.159-.977 1.738-2.307 1.738-3.989 0-1.863-.579-3.329-1.738-4.397-1.137-1.068-2.716-1.603-4.739-1.603h-12.238v11.421Zm0-19.943h9.102c1.454 0 2.693-.205 3.716-.614 1.045-.432 1.841-1.045 2.386-1.84.568-.796.852-1.74.852-2.83 0-1.614-.647-2.875-1.943-3.784-1.295-.91-3.068-1.364-5.318-1.364h-8.795v10.432ZM101.061 183.625H86.129c-.273-1.932-.83-3.648-1.67-5.148a13.1 13.1 0 0 0-3.239-3.886c-1.318-1.068-2.84-1.886-4.568-2.455-1.705-.568-3.557-.852-5.557-.852-3.614 0-6.761.898-9.443 2.693-2.682 1.773-4.761 4.364-6.239 7.773-1.477 3.386-2.216 7.5-2.216 12.341 0 4.977.74 9.159 2.216 12.545 1.5 3.387 3.591 5.944 6.273 7.671 2.682 1.727 5.784 2.591 9.307 2.591 1.977 0 3.807-.262 5.489-.784 1.704-.523 3.215-1.284 4.534-2.284a13.175 13.175 0 0 0 3.272-3.716c.887-1.455 1.5-3.114 1.841-4.978l14.932.069c-.386 3.204-1.352 6.295-2.898 9.272-1.522 2.955-3.58 5.603-6.17 7.943-2.568 2.319-5.636 4.16-9.205 5.523-3.545 1.341-7.556 2.012-12.034 2.012-6.227 0-11.795-1.41-16.704-4.228-4.887-2.818-8.75-6.897-11.591-12.238-2.818-5.341-4.228-11.807-4.228-19.398 0-7.614 1.432-14.091 4.296-19.432 2.864-5.341 6.75-9.409 11.66-12.204 4.908-2.819 10.43-4.228 16.567-4.228 4.046 0 7.796.568 11.25 1.705 3.477 1.136 6.557 2.795 9.239 4.977 2.682 2.159 4.864 4.807 6.545 7.943 1.705 3.137 2.796 6.728 3.273 10.773Zm34.176 46.398c-5.386 0-10.023-1.091-13.909-3.273-3.864-2.205-6.841-5.318-8.932-9.341-2.091-4.045-3.136-8.829-3.136-14.352 0-5.387 1.045-10.114 3.136-14.182s5.034-7.239 8.83-9.511c3.818-2.273 8.295-3.409 13.432-3.409 3.454 0 6.67.556 9.647 1.67 3 1.091 5.614 2.739 7.841 4.943 2.25 2.205 4 4.977 5.25 8.318 1.25 3.319 1.875 7.205 1.875 11.659v3.989h-44.216v-9h30.546c0-2.091-.455-3.943-1.364-5.557a9.768 9.768 0 0 0-3.784-3.784c-1.591-.932-3.443-1.398-5.557-1.398-2.204 0-4.159.512-5.863 1.535-1.682 1-3 2.352-3.955 4.056-.954 1.682-1.443 3.557-1.466 5.625v8.557c0 2.591.477 4.83 1.432 6.716.977 1.886 2.352 3.341 4.125 4.364 1.773 1.022 3.875 1.534 6.307 1.534 1.613 0 3.091-.227 4.432-.682 1.341-.455 2.488-1.136 3.443-2.045.954-.91 1.682-2.023 2.182-3.341l13.431.886c-.681 3.227-2.079 6.045-4.193 8.455-2.091 2.386-4.795 4.25-8.113 5.59-3.296 1.319-7.103 1.978-11.421 1.978Zm33.512 18.613v-72h14.318v8.796h.647c.637-1.409 1.557-2.841 2.762-4.296 1.227-1.477 2.818-2.704 4.773-3.681 1.977-1 4.431-1.5 7.363-1.5 3.818 0 7.341 1 10.568 3 3.228 1.977 5.807 4.965 7.739 8.965 1.932 3.978 2.898 8.966 2.898 14.966 0 5.841-.943 10.773-2.83 14.796-1.863 4-4.409 7.034-7.636 9.102-3.205 2.046-6.796 3.068-10.773 3.068-2.818 0-5.216-.466-7.193-1.397-1.955-.932-3.557-2.103-4.807-3.512-1.25-1.432-2.204-2.875-2.864-4.329h-.443v28.022h-14.522Zm14.215-45.818c0 3.114.432 5.83 1.296 8.148.864 2.318 2.114 4.125 3.75 5.42 1.636 1.273 3.625 1.909 5.966 1.909 2.363 0 4.363-.647 6-1.943 1.636-1.318 2.875-3.136 3.716-5.454.863-2.341 1.295-5.034 1.295-8.08 0-3.023-.42-5.682-1.261-7.977-.841-2.296-2.08-4.091-3.716-5.386-1.636-1.296-3.648-1.944-6.034-1.944-2.364 0-4.364.625-6 1.875-1.614 1.25-2.852 3.023-3.716 5.319-.864 2.295-1.296 5-1.296 8.113Zm82.398-26.182v11.421h-21.75V229h-14.113v-52.364h35.863Zm30.844 53.387c-5.386 0-10.023-1.091-13.909-3.273-3.864-2.205-6.841-5.318-8.932-9.341-2.091-4.045-3.136-8.829-3.136-14.352 0-5.387 1.045-10.114 3.136-14.182s5.034-7.239 8.83-9.511c3.818-2.273 8.295-3.409 13.431-3.409 3.455 0 6.671.556 9.648 1.67 3 1.091 5.614 2.739 7.841 4.943 2.25 2.205 4 4.977 5.25 8.318 1.25 3.319 1.875 7.205 1.875 11.659v3.989h-44.216v-9h30.546c0-2.091-.455-3.943-1.364-5.557a9.768 9.768 0 0 0-3.784-3.784c-1.591-.932-3.443-1.398-5.557-1.398-2.204 0-4.159.512-5.864 1.535-1.681 1-3 2.352-3.954 4.056-.955 1.682-1.443 3.557-1.466 5.625v8.557c0 2.591.477 4.83 1.432 6.716.977 1.886 2.352 3.341 4.125 4.364 1.773 1.022 3.875 1.534 6.307 1.534 1.613 0 3.091-.227 4.431-.682 1.341-.455 2.489-1.136 3.444-2.045.954-.91 1.681-2.023 2.181-3.341l13.432.886c-.682 3.227-2.079 6.045-4.193 8.455-2.091 2.386-4.795 4.25-8.114 5.59-3.295 1.319-7.102 1.978-11.42 1.978Zm47.386-20.182 18.853-33.205h14.318V229h-13.841v-33.307L344.138 229h-14.421v-52.364h13.875v33.205Zm16.364-51.477h10.125c-.023 4.136-1.557 7.466-4.602 9.988-3.023 2.523-7.114 3.784-12.273 3.784-5.182 0-9.284-1.261-12.307-3.784-3.023-2.522-4.534-5.852-4.534-9.988h10.057c-.023 1.568.477 2.977 1.5 4.227 1.045 1.25 2.807 1.875 5.284 1.875 2.409 0 4.136-.614 5.182-1.841 1.045-1.227 1.568-2.648 1.568-4.261ZM410.896 229v-69.818h46.33v12.17h-31.568v13.637h11.352c5.523 0 10.284.897 14.284 2.693 4.023 1.773 7.125 4.284 9.307 7.534 2.182 3.25 3.273 7.079 3.273 11.489 0 4.386-1.091 8.261-3.273 11.625-2.182 3.34-5.284 5.954-9.307 7.84-4 1.887-8.761 2.83-14.284 2.83h-26.114Zm14.762-11.864h11.352c2.636 0 4.864-.477 6.682-1.431 1.818-.978 3.193-2.262 4.125-3.853.954-1.613 1.432-3.375 1.432-5.284 0-2.773-1.057-5.113-3.171-7.023-2.091-1.931-5.114-2.897-9.068-2.897h-11.352v20.488Zm71.156 12.887c-5.296 0-9.875-1.125-13.739-3.375-3.841-2.273-6.807-5.432-8.897-9.478-2.091-4.068-3.137-8.784-3.137-14.147 0-5.409 1.046-10.137 3.137-14.182 2.09-4.068 5.056-7.227 8.897-9.477 3.864-2.273 8.443-3.409 13.739-3.409 5.295 0 9.864 1.136 13.704 3.409 3.864 2.25 6.841 5.409 8.932 9.477 2.091 4.045 3.137 8.773 3.137 14.182 0 5.363-1.046 10.079-3.137 14.147-2.091 4.046-5.068 7.205-8.932 9.478-3.84 2.25-8.409 3.375-13.704 3.375Zm.068-11.25c2.409 0 4.421-.682 6.034-2.046 1.614-1.386 2.83-3.272 3.648-5.659.841-2.386 1.261-5.102 1.261-8.148 0-3.045-.42-5.761-1.261-8.147-.818-2.387-2.034-4.273-3.648-5.659-1.613-1.387-3.625-2.08-6.034-2.08-2.432 0-4.477.693-6.136 2.08-1.637 1.386-2.875 3.272-3.716 5.659-.818 2.386-1.227 5.102-1.227 8.147 0 3.046.409 5.762 1.227 8.148.841 2.387 2.079 4.273 3.716 5.659 1.659 1.364 3.704 2.046 6.136 2.046Zm35.148 29.863v-72h14.318v8.796h.648c.636-1.409 1.557-2.841 2.761-4.296 1.227-1.477 2.818-2.704 4.773-3.681 1.977-1 4.432-1.5 7.363-1.5 3.819 0 7.341 1 10.569 3 3.227 1.977 5.806 4.965 7.738 8.965 1.932 3.978 2.898 8.966 2.898 14.966 0 5.841-.943 10.773-2.83 14.796-1.863 4-4.409 7.034-7.636 9.102-3.204 2.046-6.795 3.068-10.773 3.068-2.818 0-5.216-.466-7.193-1.397-1.954-.932-3.557-2.103-4.807-3.512-1.25-1.432-2.204-2.875-2.863-4.329h-.443v28.022H532.03Zm14.216-45.818c0 3.114.432 5.83 1.295 8.148.864 2.318 2.114 4.125 3.75 5.42 1.637 1.273 3.625 1.909 5.966 1.909 2.364 0 4.364-.647 6-1.943 1.636-1.318 2.875-3.136 3.716-5.454.864-2.341 1.295-5.034 1.295-8.08 0-3.023-.42-5.682-1.261-7.977-.841-2.296-2.079-4.091-3.716-5.386-1.636-1.296-3.648-1.944-6.034-1.944-2.364 0-4.364.625-6 1.875-1.614 1.25-2.852 3.023-3.716 5.319-.863 2.295-1.295 5-1.295 8.113Zm60.409 7.023 18.852-33.205h14.318V229h-13.841v-33.307L607.2 229h-14.42v-52.364h13.875v33.205Zm68.471 20.182c-5.363 0-9.977-1.137-13.84-3.409-3.841-2.296-6.796-5.478-8.864-9.546-2.046-4.068-3.068-8.75-3.068-14.045 0-5.364 1.034-10.068 3.102-14.114 2.091-4.068 5.057-7.239 8.898-9.511 3.841-2.296 8.409-3.443 13.704-3.443 4.568 0 8.568.829 12 2.488 3.432 1.659 6.148 3.989 8.148 6.989s3.102 6.523 3.307 10.568h-13.705c-.386-2.614-1.409-4.716-3.068-6.307-1.636-1.613-3.784-2.42-6.443-2.42-2.25 0-4.216.613-5.898 1.841-1.659 1.204-2.954 2.966-3.886 5.284-.932 2.318-1.398 5.125-1.398 8.42 0 3.341.455 6.182 1.364 8.523.932 2.341 2.238 4.125 3.92 5.352 1.682 1.227 3.648 1.841 5.898 1.841 1.659 0 3.148-.341 4.466-1.023 1.341-.681 2.443-1.67 3.307-2.966.886-1.318 1.466-2.897 1.738-4.738h13.705c-.227 4-1.318 7.523-3.273 10.568-1.932 3.023-4.602 5.386-8.011 7.091-3.409 1.704-7.443 2.557-12.103 2.557Zm56.344 0c-5.295 0-9.875-1.125-13.738-3.375-3.841-2.273-6.807-5.432-8.898-9.478-2.091-4.068-3.137-8.784-3.137-14.147 0-5.409 1.046-10.137 3.137-14.182 2.091-4.068 5.057-7.227 8.898-9.477 3.863-2.273 8.443-3.409 13.738-3.409 5.296 0 9.864 1.136 13.705 3.409 3.863 2.25 6.841 5.409 8.932 9.477 2.09 4.045 3.136 8.773 3.136 14.182 0 5.363-1.046 10.079-3.136 14.147-2.091 4.046-5.069 7.205-8.932 9.478-3.841 2.25-8.409 3.375-13.705 3.375Zm.068-11.25c2.409 0 4.421-.682 6.034-2.046 1.614-1.386 2.83-3.272 3.648-5.659.841-2.386 1.262-5.102 1.262-8.148 0-3.045-.421-5.761-1.262-8.147-.818-2.387-2.034-4.273-3.648-5.659-1.613-1.387-3.625-2.08-6.034-2.08-2.431 0-4.477.693-6.136 2.08-1.636 1.386-2.875 3.272-3.716 5.659-.818 2.386-1.227 5.102-1.227 8.147 0 3.046.409 5.762 1.227 8.148.841 2.387 2.08 4.273 3.716 5.659 1.659 1.364 3.705 2.046 6.136 2.046ZM766.686 229v-52.364h22.33c6.454 0 11.556 1.228 15.306 3.682 3.75 2.455 5.625 5.943 5.625 10.466 0 2.841-1.056 5.205-3.17 7.091-2.114 1.886-5.045 3.159-8.795 3.818 3.136.227 5.806.943 8.011 2.148 2.227 1.182 3.92 2.716 5.079 4.602 1.182 1.887 1.773 3.977 1.773 6.273 0 2.977-.795 5.534-2.386 7.67-1.568 2.137-3.875 3.773-6.921 4.909-3.022 1.137-6.716 1.705-11.079 1.705h-25.773Zm13.534-10.875h12.239c2.023 0 3.602-.477 4.738-1.432 1.16-.977 1.739-2.307 1.739-3.988 0-1.864-.579-3.33-1.739-4.398-1.136-1.068-2.715-1.602-4.738-1.602H780.22v11.42Zm0-19.943h9.102c1.455 0 2.694-.205 3.716-.614 1.046-.432 1.841-1.045 2.387-1.841.568-.795.852-1.738.852-2.829 0-1.614-.648-2.875-1.943-3.784-1.296-.909-3.068-1.364-5.318-1.364h-8.796v10.432Zm55.654 11.659 18.852-33.205h14.318V229h-13.841v-33.307L836.419 229h-14.42v-52.364h13.875v33.205Zm90.255-33.205V229h-13.772v-52.364h13.772Zm-6.716 22.978v11.454c-1.113.5-2.5.977-4.159 1.432a50.344 50.344 0 0 1-5.216 1.057c-1.818.273-3.522.409-5.113.409-7.523 0-13.443-1.546-17.762-4.636-4.318-3.114-6.477-8.08-6.477-14.898v-17.864h13.705v17.864c0 2.023.341 3.625 1.022 4.807.705 1.181 1.819 2.034 3.341 2.556 1.546.5 3.603.75 6.171.75 2.386 0 4.727-.25 7.022-.75 2.296-.5 4.785-1.227 7.466-2.181Z" fill="currentColor"></path></svg><svg fill="none" id="phone" viewBox="0 0 21 20"><path d="M16.315 12.39c-.41-.427-.905-.655-1.43-.655-.519 0-1.018.224-1.445.65l-1.336 1.33c-.11-.06-.22-.114-.325-.17a5.407 5.407 0 0 1-.419-.223c-1.25-.793-2.388-1.828-3.479-3.166-.528-.667-.883-1.228-1.141-1.798.347-.316.668-.646.98-.962.12-.119.237-.24.356-.36.887-.886.887-2.034 0-2.92L6.922 2.963c-.131-.13-.267-.265-.393-.4-.254-.262-.52-.532-.795-.786-.41-.405-.9-.62-1.416-.62-.516 0-1.015.215-1.438.62l-.008.009-1.437 1.448a3.086 3.086 0 0 0-.918 1.962C.416 6.43.78 7.577 1.058 8.33c.685 1.844 1.708 3.554 3.234 5.386a19.89 19.89 0 0 0 6.624 5.18c.973.46 2.27 1.004 3.72 1.097.09.004.182.008.267.008.976 0 1.796-.35 2.439-1.047.004-.008.013-.012.017-.021.22-.266.473-.506.74-.764.181-.173.367-.355.55-.544.418-.435.637-.942.637-1.461 0-.523-.224-1.026-.65-1.448l-2.321-2.326Zm1.513 4.444c-.004 0-.004.004 0 0-.165.177-.334.338-.516.515-.274.262-.553.536-.816.844-.426.456-.93.671-1.589.671-.063 0-.131 0-.194-.004-1.256-.08-2.423-.57-3.298-.988a18.775 18.775 0 0 1-6.24-4.88c-1.44-1.734-2.404-3.338-3.043-5.06-.393-1.051-.537-1.87-.473-2.643.042-.494.232-.903.583-1.253l1.442-1.44c.207-.194.427-.3.642-.3.266 0 .482.16.617.296l.013.013c.258.24.503.49.76.755.132.135.267.27.403.41l1.154 1.152c.448.448.448.861 0 1.309-.123.122-.241.244-.364.363-.355.363-.693.7-1.061 1.03-.008.008-.017.012-.021.02-.364.364-.296.718-.22.959l.013.038c.3.726.723 1.41 1.365 2.224l.004.005c1.167 1.435 2.397 2.554 3.754 3.41.173.11.351.199.52.283.152.076.296.148.419.224.017.008.034.021.05.03a.917.917 0 0 0 .419.105c.35 0 .57-.22.642-.291l1.446-1.444c.144-.143.372-.316.638-.316.263 0 .478.164.61.308a.34.34 0 0 0 .008.008l2.329 2.326c.435.43.435.874.004 1.321ZM11.31 4.757a5.363 5.363 0 0 1 2.916 1.512A5.378 5.378 0 0 1 15.74 9.18a.567.567 0 0 0 .562.473c.034 0 .063-.004.097-.008a.57.57 0 0 0 .47-.659 6.508 6.508 0 0 0-1.831-3.525 6.523 6.523 0 0 0-3.53-1.827.574.574 0 0 0-.66.464.564.564 0 0 0 .461.658ZM20.491 8.822a10.705 10.705 0 0 0-3.014-5.804 10.732 10.732 0 0 0-5.812-3.01.569.569 0 1 0-.186 1.124 9.61 9.61 0 0 1 5.195 2.688 9.559 9.559 0 0 1 2.693 5.188.567.567 0 0 0 .562.473.56.56 0 0 0 .562-.659Z" fill="currentColor"></path></svg><svg viewBox="0 0 48 48" id="whatsapp"><path style="fill:#fff" d="m4.9 43.3 2.7-9.8C5.9 30.6 5 27.3 5 24 5 13.5 13.5 5 24 5c5.1 0 9.8 2 13.4 5.6C41 14.2 43 18.9 43 24c0 10.5-8.5 19-19 19-3.2 0-6.3-.8-9.1-2.3l-10 2.6z"></path><path style="fill:#fff" d="M4.9 43.8c-.1 0-.3-.1-.4-.1-.1-.1-.2-.3-.1-.5L7 33.5c-1.6-2.9-2.5-6.2-2.5-9.6C4.5 13.2 13.3 4.5 24 4.5c5.2 0 10.1 2 13.8 5.7 3.7 3.7 5.7 8.6 5.7 13.8 0 10.7-8.7 19.5-19.5 19.5-3.2 0-6.3-.8-9.1-2.3L5 43.8h-.1z"></path><path style="fill:#cfd8dc" d="M24 5c5.1 0 9.8 2 13.4 5.6C41 14.2 43 18.9 43 24c0 10.5-8.5 19-19 19-3.2 0-6.3-.8-9.1-2.3l-10 2.6 2.7-9.8C5.9 30.6 5 27.3 5 24 5 13.5 13.5 5 24 5m0-1C13 4 4 13 4 24c0 3.4.8 6.7 2.5 9.6L3.9 43c-.1.3 0 .7.3 1 .2.2.4.3.7.3h.3l9.7-2.5c2.8 1.5 6 2.2 9.2 2.2 11 0 20-9 20-20 0-5.3-2.1-10.4-5.8-14.1C34.4 6.1 29.4 4 24 4z"></path><path style="fill:currentColor" d="M35.2 12.8c-3-3-6.9-4.6-11.2-4.6-8.7 0-15.8 7.1-15.8 15.8 0 3 .8 5.9 2.4 8.4l.4.6-1.6 5.8 6-1.6.6.3c2.4 1.4 5.2 2.2 8 2.2 8.7 0 15.8-7.1 15.8-15.8 0-4.1-1.6-8.1-4.6-11.1z"></path><path style="fill-rule:evenodd;clip-rule:evenodd;fill:#fff" d="M19.3 16c-.4-.8-.7-.8-1.1-.8h-.9c-.3 0-.8.1-1.3.6-.4.5-1.7 1.6-1.7 4s1.7 4.6 1.9 4.9 3.3 5.3 8.1 7.2c4 1.6 4.8 1.3 5.7 1.2.9-.1 2.8-1.1 3.2-2.3.4-1.1.4-2.1.3-2.3-.1-.2-.4-.3-.9-.6s-2.8-1.4-3.2-1.5c-.4-.2-.8-.2-1.1.2-.3.5-1.2 1.5-1.5 1.9-.3.3-.6.4-1 .1-.5-.2-2-.7-3.8-2.4-1.4-1.3-2.4-2.8-2.6-3.3-.3-.5 0-.7.2-1 .2-.2.5-.6.7-.8.2-.3.3-.5.5-.8.2-.3.1-.6 0-.8-.2-.2-1.1-2.5-1.5-3.5z"></path></svg></svg>