<svg xmlns="http://www.w3.org/2000/svg"><style>:root svg:not(:target){display:none}</style><svg fill="none" id="icon-close" viewBox="0 0 20 20"><path d="M.293 18.291a1 1 0 1 0 1.414 1.414L10 11.413l8.292 8.292a1 1 0 1 0 1.414-1.414l-8.292-8.292 8.292-8.292A1 1 0 1 0 18.291.293L9.999 8.585 1.707.293A1 1 0 1 0 .293 1.707L8.585 10 .293 18.291z" fill="#fff"></path></svg><svg fill="none" id="phone" viewBox="0 0 21 20"><path d="M16.315 12.39c-.41-.427-.905-.655-1.43-.655-.519 0-1.018.224-1.445.65l-1.336 1.33c-.11-.06-.22-.114-.325-.17a5.407 5.407 0 0 1-.419-.223c-1.25-.793-2.388-1.828-3.479-3.166-.528-.667-.883-1.228-1.141-1.798.347-.316.668-.646.98-.962.12-.119.237-.24.356-.36.887-.886.887-2.034 0-2.92L6.922 2.963c-.131-.13-.267-.265-.393-.4-.254-.262-.52-.532-.795-.786-.41-.405-.9-.62-1.416-.62-.516 0-1.015.215-1.438.62l-.008.009-1.437 1.448a3.086 3.086 0 0 0-.918 1.962C.416 6.43.78 7.577 1.058 8.33c.685 1.844 1.708 3.554 3.234 5.386a19.89 19.89 0 0 0 6.624 5.18c.973.46 2.27 1.004 3.72 1.097.09.004.182.008.267.008.976 0 1.796-.35 2.439-1.047.004-.008.013-.012.017-.021.22-.266.473-.506.74-.764.181-.173.367-.355.55-.544.418-.435.637-.942.637-1.461 0-.523-.224-1.026-.65-1.448l-2.321-2.326Zm1.513 4.444c-.004 0-.004.004 0 0-.165.177-.334.338-.516.515-.274.262-.553.536-.816.844-.426.456-.93.671-1.589.671-.063 0-.131 0-.194-.004-1.256-.08-2.423-.57-3.298-.988a18.775 18.775 0 0 1-6.24-4.88c-1.44-1.734-2.404-3.338-3.043-5.06-.393-1.051-.537-1.87-.473-2.643.042-.494.232-.903.583-1.253l1.442-1.44c.207-.194.427-.3.642-.3.266 0 .482.16.617.296l.013.013c.258.24.503.49.76.755.132.135.267.27.403.41l1.154 1.152c.448.448.448.861 0 1.309-.123.122-.241.244-.364.363-.355.363-.693.7-1.061 1.03-.008.008-.017.012-.021.02-.364.364-.296.718-.22.959l.013.038c.3.726.723 1.41 1.365 2.224l.004.005c1.167 1.435 2.397 2.554 3.754 3.41.173.11.351.199.52.283.152.076.296.148.419.224.017.008.034.021.05.03a.917.917 0 0 0 .419.105c.35 0 .57-.22.642-.291l1.446-1.444c.144-.143.372-.316.638-.316.263 0 .478.164.61.308a.34.34 0 0 0 .008.008l2.329 2.326c.435.43.435.874.004 1.321ZM11.31 4.757a5.363 5.363 0 0 1 2.916 1.512A5.378 5.378 0 0 1 15.74 9.18a.567.567 0 0 0 .562.473c.034 0 .063-.004.097-.008a.57.57 0 0 0 .47-.659 6.508 6.508 0 0 0-1.831-3.525 6.523 6.523 0 0 0-3.53-1.827.574.574 0 0 0-.66.464.564.564 0 0 0 .461.658ZM20.491 8.822a10.705 10.705 0 0 0-3.014-5.804 10.732 10.732 0 0 0-5.812-3.01.569.569 0 1 0-.186 1.124 9.61 9.61 0 0 1 5.195 2.688 9.559 9.559 0 0 1 2.693 5.188.567.567 0 0 0 .562.473.56.56 0 0 0 .562-.659Z"></path></svg><svg viewBox="0 0 48 48" id="whatsapp"><path style="fill:#fff" d="m4.9 43.3 2.7-9.8C5.9 30.6 5 27.3 5 24 5 13.5 13.5 5 24 5c5.1 0 9.8 2 13.4 5.6C41 14.2 43 18.9 43 24c0 10.5-8.5 19-19 19-3.2 0-6.3-.8-9.1-2.3l-10 2.6z"></path><path style="fill:#fff" d="M4.9 43.8c-.1 0-.3-.1-.4-.1-.1-.1-.2-.3-.1-.5L7 33.5c-1.6-2.9-2.5-6.2-2.5-9.6C4.5 13.2 13.3 4.5 24 4.5c5.2 0 10.1 2 13.8 5.7 3.7 3.7 5.7 8.6 5.7 13.8 0 10.7-8.7 19.5-19.5 19.5-3.2 0-6.3-.8-9.1-2.3L5 43.8h-.1z"></path><path style="fill:#cfd8dc" d="M24 5c5.1 0 9.8 2 13.4 5.6C41 14.2 43 18.9 43 24c0 10.5-8.5 19-19 19-3.2 0-6.3-.8-9.1-2.3l-10 2.6 2.7-9.8C5.9 30.6 5 27.3 5 24 5 13.5 13.5 5 24 5m0-1C13 4 4 13 4 24c0 3.4.8 6.7 2.5 9.6L3.9 43c-.1.3 0 .7.3 1 .2.2.4.3.7.3h.3l9.7-2.5c2.8 1.5 6 2.2 9.2 2.2 11 0 20-9 20-20 0-5.3-2.1-10.4-5.8-14.1C34.4 6.1 29.4 4 24 4z"></path><path style="fill:#40c351" d="M35.2 12.8c-3-3-6.9-4.6-11.2-4.6-8.7 0-15.8 7.1-15.8 15.8 0 3 .8 5.9 2.4 8.4l.4.6-1.6 5.8 6-1.6.6.3c2.4 1.4 5.2 2.2 8 2.2 8.7 0 15.8-7.1 15.8-15.8 0-4.1-1.6-8.1-4.6-11.1z"></path><path style="fill-rule:evenodd;clip-rule:evenodd;fill:#fff" d="M19.3 16c-.4-.8-.7-.8-1.1-.8h-.9c-.3 0-.8.1-1.3.6-.4.5-1.7 1.6-1.7 4s1.7 4.6 1.9 4.9 3.3 5.3 8.1 7.2c4 1.6 4.8 1.3 5.7 1.2.9-.1 2.8-1.1 3.2-2.3.4-1.1.4-2.1.3-2.3-.1-.2-.4-.3-.9-.6s-2.8-1.4-3.2-1.5c-.4-.2-.8-.2-1.1.2-.3.5-1.2 1.5-1.5 1.9-.3.3-.6.4-1 .1-.5-.2-2-.7-3.8-2.4-1.4-1.3-2.4-2.8-2.6-3.3-.3-.5 0-.7.2-1 .2-.2.5-.6.7-.8.2-.3.3-.5.5-.8.2-.3.1-.6 0-.8-.2-.2-1.1-2.5-1.5-3.5z"></path></svg></svg>