<svg width="965" height="310" viewBox="0 0 965 310" xmlns="http://www.w3.org/2000/svg">
<path d="M209.381 43.1818H224.108V87.0909H224.688L254.858 43.1818H267.778V113H253.017V69.0568H252.506L222.165 113H209.381V43.1818ZM339.327 43.1818V113H324.736V55.1818H296.509V113H281.918V43.1818H339.327ZM383.134 113.955V101.955H386.918C388.804 101.955 390.327 101.727 391.486 101.273C392.645 100.795 393.565 100.102 394.247 99.1932C394.952 98.2614 395.543 97.1023 396.02 95.7159L396.872 93.4318L371.509 43.1818H386.781L403.213 77.5455L416.952 43.1818H432.02L407.952 99.2955C406.793 101.886 405.418 104.295 403.827 106.523C402.259 108.75 400.247 110.545 397.793 111.909C395.338 113.273 392.202 113.955 388.384 113.955H383.134ZM452.423 114.023C447.06 114.023 442.446 112.886 438.582 110.614C434.741 108.318 431.787 105.136 429.719 101.068C427.673 97 426.651 92.3182 426.651 87.0227C426.651 81.6591 427.685 76.9545 429.753 72.9091C431.844 68.8409 434.81 65.6705 438.651 63.3977C442.491 61.1023 447.06 59.9545 452.355 59.9545C456.923 59.9545 460.923 60.7841 464.355 62.4432C467.787 64.1023 470.503 66.4318 472.503 69.4318C474.503 72.4318 475.605 75.9545 475.81 80H462.105C461.719 77.3864 460.696 75.2841 459.037 73.6932C457.401 72.0795 455.253 71.2727 452.594 71.2727C450.344 71.2727 448.378 71.8864 446.696 73.1136C445.037 74.3182 443.741 76.0795 442.81 78.3977C441.878 80.7159 441.412 83.5227 441.412 86.8182C441.412 90.1591 441.866 93 442.776 95.3409C443.707 97.6818 445.014 99.4659 446.696 100.693C448.378 101.92 450.344 102.534 452.594 102.534C454.253 102.534 455.741 102.193 457.06 101.511C458.401 100.83 459.503 99.8409 460.366 98.5455C461.253 97.2273 461.832 95.6477 462.105 93.8068H475.81C475.582 97.8068 474.491 101.33 472.537 104.375C470.605 107.398 467.935 109.761 464.526 111.466C461.116 113.17 457.082 114.023 452.423 114.023ZM481.537 72.0568V60.6364H528.991V72.0568H512.116V113H498.276V72.0568H481.537ZM551.67 93.8409L570.523 60.6364H584.841V113H571V79.6932L552.216 113H537.795V60.6364H551.67V93.8409ZM632.926 81.0227V92.4432H605.585V81.0227H632.926ZM610.358 60.6364V113H596.483V60.6364H610.358ZM642.028 60.6364V113H628.256V60.6364H642.028ZM676.955 114.023C671.659 114.023 667.08 112.898 663.216 110.648C659.375 108.375 656.409 105.216 654.318 101.17C652.227 97.1023 651.182 92.3864 651.182 87.0227C651.182 81.6136 652.227 76.8864 654.318 72.8409C656.409 68.7727 659.375 65.6136 663.216 63.3636C667.08 61.0909 671.659 59.9545 676.955 59.9545C682.25 59.9545 686.818 61.0909 690.659 63.3636C694.523 65.6136 697.5 68.7727 699.591 72.8409C701.682 76.8864 702.727 81.6136 702.727 87.0227C702.727 92.3864 701.682 97.1023 699.591 101.17C697.5 105.216 694.523 108.375 690.659 110.648C686.818 112.898 682.25 114.023 676.955 114.023ZM677.023 102.773C679.432 102.773 681.443 102.091 683.057 100.727C684.67 99.3409 685.886 97.4545 686.705 95.0682C687.545 92.6818 687.966 89.9659 687.966 86.9205C687.966 83.875 687.545 81.1591 686.705 78.7727C685.886 76.3864 684.67 74.5 683.057 73.1136C681.443 71.7273 679.432 71.0341 677.023 71.0341C674.591 71.0341 672.545 71.7273 670.886 73.1136C669.25 74.5 668.011 76.3864 667.17 78.7727C666.352 81.1591 665.943 83.875 665.943 86.9205C665.943 89.9659 666.352 92.6818 667.17 95.0682C668.011 97.4545 669.25 99.3409 670.886 100.727C672.545 102.091 674.591 102.773 677.023 102.773ZM712.17 113V60.6364H734.5C740.955 60.6364 746.057 61.8636 749.807 64.3182C753.557 66.7727 755.432 70.2614 755.432 74.7841C755.432 77.625 754.375 79.9886 752.261 81.875C750.148 83.7614 747.216 85.0341 743.466 85.6932C746.602 85.9205 749.273 86.6364 751.477 87.8409C753.705 89.0227 755.398 90.5568 756.557 92.4432C757.739 94.3295 758.33 96.4205 758.33 98.7159C758.33 101.693 757.534 104.25 755.943 106.386C754.375 108.523 752.068 110.159 749.023 111.295C746 112.432 742.307 113 737.943 113H712.17ZM725.705 102.125H737.943C739.966 102.125 741.545 101.648 742.682 100.693C743.841 99.7159 744.42 98.3864 744.42 96.7045C744.42 94.8409 743.841 93.375 742.682 92.3068C741.545 91.2386 739.966 90.7045 737.943 90.7045H725.705V102.125ZM725.705 82.1818H734.807C736.261 82.1818 737.5 81.9773 738.523 81.5682C739.568 81.1364 740.364 80.5227 740.909 79.7273C741.477 78.9318 741.761 77.9886 741.761 76.8977C741.761 75.2841 741.114 74.0227 739.818 73.1136C738.523 72.2045 736.75 71.75 734.5 71.75H725.705V82.1818ZM101.061 183.625H86.1293C85.8565 181.693 85.2997 179.977 84.4588 178.477C83.6179 176.955 82.5384 175.659 81.2202 174.591C79.902 173.523 78.3793 172.705 76.652 172.136C74.9474 171.568 73.0952 171.284 71.0952 171.284C67.4815 171.284 64.3338 172.182 61.652 173.977C58.9702 175.75 56.8906 178.341 55.4134 181.75C53.9361 185.136 53.1974 189.25 53.1974 194.091C53.1974 199.068 53.9361 203.25 55.4134 206.636C56.9134 210.023 59.0043 212.58 61.6861 214.307C64.3679 216.034 67.4702 216.898 70.9929 216.898C72.9702 216.898 74.7997 216.636 76.4815 216.114C78.1861 215.591 79.6974 214.83 81.0156 213.83C82.3338 212.807 83.4247 211.568 84.2884 210.114C85.1747 208.659 85.7884 207 86.1293 205.136L101.061 205.205C100.675 208.409 99.7088 211.5 98.1634 214.477C96.6406 217.432 94.5838 220.08 91.9929 222.42C89.4247 224.739 86.3565 226.58 82.7884 227.943C79.2429 229.284 75.2315 229.955 70.7543 229.955C64.527 229.955 58.9588 228.545 54.0497 225.727C49.1634 222.909 45.2997 218.83 42.4588 213.489C39.6406 208.148 38.2315 201.682 38.2315 194.091C38.2315 186.477 39.6634 180 42.527 174.659C45.3906 169.318 49.277 165.25 54.1861 162.455C59.0952 159.636 64.6179 158.227 70.7543 158.227C74.7997 158.227 78.5497 158.795 82.0043 159.932C85.4815 161.068 88.5611 162.727 91.2429 164.909C93.9247 167.068 96.1065 169.716 97.7884 172.852C99.4929 175.989 100.584 179.58 101.061 183.625ZM135.237 230.023C129.851 230.023 125.214 228.932 121.328 226.75C117.464 224.545 114.487 221.432 112.396 217.409C110.305 213.364 109.26 208.58 109.26 203.057C109.26 197.67 110.305 192.943 112.396 188.875C114.487 184.807 117.43 181.636 121.226 179.364C125.044 177.091 129.521 175.955 134.658 175.955C138.112 175.955 141.328 176.511 144.305 177.625C147.305 178.716 149.919 180.364 152.146 182.568C154.396 184.773 156.146 187.545 157.396 190.886C158.646 194.205 159.271 198.091 159.271 202.545V206.534H115.055V197.534H145.601C145.601 195.443 145.146 193.591 144.237 191.977C143.328 190.364 142.067 189.102 140.453 188.193C138.862 187.261 137.01 186.795 134.896 186.795C132.692 186.795 130.737 187.307 129.033 188.33C127.351 189.33 126.033 190.682 125.078 192.386C124.124 194.068 123.635 195.943 123.612 198.011V206.568C123.612 209.159 124.089 211.398 125.044 213.284C126.021 215.17 127.396 216.625 129.169 217.648C130.942 218.67 133.044 219.182 135.476 219.182C137.089 219.182 138.567 218.955 139.908 218.5C141.249 218.045 142.396 217.364 143.351 216.455C144.305 215.545 145.033 214.432 145.533 213.114L158.964 214C158.283 217.227 156.885 220.045 154.771 222.455C152.68 224.841 149.976 226.705 146.658 228.045C143.362 229.364 139.555 230.023 135.237 230.023ZM168.749 248.636V176.636H183.067V185.432H183.714C184.351 184.023 185.271 182.591 186.476 181.136C187.703 179.659 189.294 178.432 191.249 177.455C193.226 176.455 195.68 175.955 198.612 175.955C202.43 175.955 205.953 176.955 209.18 178.955C212.408 180.932 214.987 183.92 216.919 187.92C218.851 191.898 219.817 196.886 219.817 202.886C219.817 208.727 218.874 213.659 216.987 217.682C215.124 221.682 212.578 224.716 209.351 226.784C206.146 228.83 202.555 229.852 198.578 229.852C195.76 229.852 193.362 229.386 191.385 228.455C189.43 227.523 187.828 226.352 186.578 224.943C185.328 223.511 184.374 222.068 183.714 220.614H183.271V248.636H168.749ZM182.964 202.818C182.964 205.932 183.396 208.648 184.26 210.966C185.124 213.284 186.374 215.091 188.01 216.386C189.646 217.659 191.635 218.295 193.976 218.295C196.339 218.295 198.339 217.648 199.976 216.352C201.612 215.034 202.851 213.216 203.692 210.898C204.555 208.557 204.987 205.864 204.987 202.818C204.987 199.795 204.567 197.136 203.726 194.841C202.885 192.545 201.646 190.75 200.01 189.455C198.374 188.159 196.362 187.511 193.976 187.511C191.612 187.511 189.612 188.136 187.976 189.386C186.362 190.636 185.124 192.409 184.26 194.705C183.396 197 182.964 199.705 182.964 202.818ZM265.362 176.636V188.057H243.612V229H229.499V176.636H265.362ZM296.206 230.023C290.82 230.023 286.183 228.932 282.297 226.75C278.433 224.545 275.456 221.432 273.365 217.409C271.274 213.364 270.229 208.58 270.229 203.057C270.229 197.67 271.274 192.943 273.365 188.875C275.456 184.807 278.399 181.636 282.195 179.364C286.013 177.091 290.49 175.955 295.626 175.955C299.081 175.955 302.297 176.511 305.274 177.625C308.274 178.716 310.888 180.364 313.115 182.568C315.365 184.773 317.115 187.545 318.365 190.886C319.615 194.205 320.24 198.091 320.24 202.545V206.534H276.024V197.534H306.57C306.57 195.443 306.115 193.591 305.206 191.977C304.297 190.364 303.036 189.102 301.422 188.193C299.831 187.261 297.979 186.795 295.865 186.795C293.661 186.795 291.706 187.307 290.001 188.33C288.32 189.33 287.001 190.682 286.047 192.386C285.092 194.068 284.604 195.943 284.581 198.011V206.568C284.581 209.159 285.058 211.398 286.013 213.284C286.99 215.17 288.365 216.625 290.138 217.648C291.911 218.67 294.013 219.182 296.445 219.182C298.058 219.182 299.536 218.955 300.876 218.5C302.217 218.045 303.365 217.364 304.32 216.455C305.274 215.545 306.001 214.432 306.501 213.114L319.933 214C319.251 217.227 317.854 220.045 315.74 222.455C313.649 224.841 310.945 226.705 307.626 228.045C304.331 229.364 300.524 230.023 296.206 230.023ZM343.592 209.841L362.445 176.636H376.763V229H362.922V195.693L344.138 229H329.717V176.636H343.592V209.841ZM359.956 158.364H370.081C370.058 162.5 368.524 165.83 365.479 168.352C362.456 170.875 358.365 172.136 353.206 172.136C348.024 172.136 343.922 170.875 340.899 168.352C337.876 165.83 336.365 162.5 336.365 158.364H346.422C346.399 159.932 346.899 161.341 347.922 162.591C348.967 163.841 350.729 164.466 353.206 164.466C355.615 164.466 357.342 163.852 358.388 162.625C359.433 161.398 359.956 159.977 359.956 158.364ZM410.896 229V159.182H457.226V171.352H425.658V184.989H437.01C442.533 184.989 447.294 185.886 451.294 187.682C455.317 189.455 458.419 191.966 460.601 195.216C462.783 198.466 463.874 202.295 463.874 206.705C463.874 211.091 462.783 214.966 460.601 218.33C458.419 221.67 455.317 224.284 451.294 226.17C447.294 228.057 442.533 229 437.01 229H410.896ZM425.658 217.136H437.01C439.646 217.136 441.874 216.659 443.692 215.705C445.51 214.727 446.885 213.443 447.817 211.852C448.771 210.239 449.249 208.477 449.249 206.568C449.249 203.795 448.192 201.455 446.078 199.545C443.987 197.614 440.964 196.648 437.01 196.648H425.658V217.136ZM496.814 230.023C491.518 230.023 486.939 228.898 483.075 226.648C479.234 224.375 476.268 221.216 474.178 217.17C472.087 213.102 471.041 208.386 471.041 203.023C471.041 197.614 472.087 192.886 474.178 188.841C476.268 184.773 479.234 181.614 483.075 179.364C486.939 177.091 491.518 175.955 496.814 175.955C502.109 175.955 506.678 177.091 510.518 179.364C514.382 181.614 517.359 184.773 519.45 188.841C521.541 192.886 522.587 197.614 522.587 203.023C522.587 208.386 521.541 213.102 519.45 217.17C517.359 221.216 514.382 224.375 510.518 226.648C506.678 228.898 502.109 230.023 496.814 230.023ZM496.882 218.773C499.291 218.773 501.303 218.091 502.916 216.727C504.53 215.341 505.746 213.455 506.564 211.068C507.405 208.682 507.825 205.966 507.825 202.92C507.825 199.875 507.405 197.159 506.564 194.773C505.746 192.386 504.53 190.5 502.916 189.114C501.303 187.727 499.291 187.034 496.882 187.034C494.45 187.034 492.405 187.727 490.746 189.114C489.109 190.5 487.871 192.386 487.03 194.773C486.212 197.159 485.803 199.875 485.803 202.92C485.803 205.966 486.212 208.682 487.03 211.068C487.871 213.455 489.109 215.341 490.746 216.727C492.405 218.091 494.45 218.773 496.882 218.773ZM532.03 248.636V176.636H546.348V185.432H546.996C547.632 184.023 548.553 182.591 549.757 181.136C550.984 179.659 552.575 178.432 554.53 177.455C556.507 176.455 558.962 175.955 561.893 175.955C565.712 175.955 569.234 176.955 572.462 178.955C575.689 180.932 578.268 183.92 580.2 187.92C582.132 191.898 583.098 196.886 583.098 202.886C583.098 208.727 582.155 213.659 580.268 217.682C578.405 221.682 575.859 224.716 572.632 226.784C569.428 228.83 565.837 229.852 561.859 229.852C559.041 229.852 556.643 229.386 554.666 228.455C552.712 227.523 551.109 226.352 549.859 224.943C548.609 223.511 547.655 222.068 546.996 220.614H546.553V248.636H532.03ZM546.246 202.818C546.246 205.932 546.678 208.648 547.541 210.966C548.405 213.284 549.655 215.091 551.291 216.386C552.928 217.659 554.916 218.295 557.257 218.295C559.621 218.295 561.621 217.648 563.257 216.352C564.893 215.034 566.132 213.216 566.973 210.898C567.837 208.557 568.268 205.864 568.268 202.818C568.268 199.795 567.848 197.136 567.007 194.841C566.166 192.545 564.928 190.75 563.291 189.455C561.655 188.159 559.643 187.511 557.257 187.511C554.893 187.511 552.893 188.136 551.257 189.386C549.643 190.636 548.405 192.409 547.541 194.705C546.678 197 546.246 199.705 546.246 202.818ZM606.655 209.841L625.507 176.636H639.825V229H625.984V195.693L607.2 229H592.78V176.636H606.655V209.841ZM675.126 230.023C669.763 230.023 665.149 228.886 661.286 226.614C657.445 224.318 654.49 221.136 652.422 217.068C650.376 213 649.354 208.318 649.354 203.023C649.354 197.659 650.388 192.955 652.456 188.909C654.547 184.841 657.513 181.67 661.354 179.398C665.195 177.102 669.763 175.955 675.058 175.955C679.626 175.955 683.626 176.784 687.058 178.443C690.49 180.102 693.206 182.432 695.206 185.432C697.206 188.432 698.308 191.955 698.513 196H684.808C684.422 193.386 683.399 191.284 681.74 189.693C680.104 188.08 677.956 187.273 675.297 187.273C673.047 187.273 671.081 187.886 669.399 189.114C667.74 190.318 666.445 192.08 665.513 194.398C664.581 196.716 664.115 199.523 664.115 202.818C664.115 206.159 664.57 209 665.479 211.341C666.411 213.682 667.717 215.466 669.399 216.693C671.081 217.92 673.047 218.534 675.297 218.534C676.956 218.534 678.445 218.193 679.763 217.511C681.104 216.83 682.206 215.841 683.07 214.545C683.956 213.227 684.536 211.648 684.808 209.807H698.513C698.286 213.807 697.195 217.33 695.24 220.375C693.308 223.398 690.638 225.761 687.229 227.466C683.82 229.17 679.786 230.023 675.126 230.023ZM731.47 230.023C726.175 230.023 721.595 228.898 717.732 226.648C713.891 224.375 710.925 221.216 708.834 217.17C706.743 213.102 705.697 208.386 705.697 203.023C705.697 197.614 706.743 192.886 708.834 188.841C710.925 184.773 713.891 181.614 717.732 179.364C721.595 177.091 726.175 175.955 731.47 175.955C736.766 175.955 741.334 177.091 745.175 179.364C749.038 181.614 752.016 184.773 754.107 188.841C756.197 192.886 757.243 197.614 757.243 203.023C757.243 208.386 756.197 213.102 754.107 217.17C752.016 221.216 749.038 224.375 745.175 226.648C741.334 228.898 736.766 230.023 731.47 230.023ZM731.538 218.773C733.947 218.773 735.959 218.091 737.572 216.727C739.186 215.341 740.402 213.455 741.22 211.068C742.061 208.682 742.482 205.966 742.482 202.92C742.482 199.875 742.061 197.159 741.22 194.773C740.402 192.386 739.186 190.5 737.572 189.114C735.959 187.727 733.947 187.034 731.538 187.034C729.107 187.034 727.061 187.727 725.402 189.114C723.766 190.5 722.527 192.386 721.686 194.773C720.868 197.159 720.459 199.875 720.459 202.92C720.459 205.966 720.868 208.682 721.686 211.068C722.527 213.455 723.766 215.341 725.402 216.727C727.061 218.091 729.107 218.773 731.538 218.773ZM766.686 229V176.636H789.016C795.47 176.636 800.572 177.864 804.322 180.318C808.072 182.773 809.947 186.261 809.947 190.784C809.947 193.625 808.891 195.989 806.777 197.875C804.663 199.761 801.732 201.034 797.982 201.693C801.118 201.92 803.788 202.636 805.993 203.841C808.22 205.023 809.913 206.557 811.072 208.443C812.254 210.33 812.845 212.42 812.845 214.716C812.845 217.693 812.05 220.25 810.459 222.386C808.891 224.523 806.584 226.159 803.538 227.295C800.516 228.432 796.822 229 792.459 229H766.686ZM780.22 218.125H792.459C794.482 218.125 796.061 217.648 797.197 216.693C798.357 215.716 798.936 214.386 798.936 212.705C798.936 210.841 798.357 209.375 797.197 208.307C796.061 207.239 794.482 206.705 792.459 206.705H780.22V218.125ZM780.22 198.182H789.322C790.777 198.182 792.016 197.977 793.038 197.568C794.084 197.136 794.879 196.523 795.425 195.727C795.993 194.932 796.277 193.989 796.277 192.898C796.277 191.284 795.629 190.023 794.334 189.114C793.038 188.205 791.266 187.75 789.016 187.75H780.22V198.182ZM835.874 209.841L854.726 176.636H869.044V229H855.203V195.693L836.419 229H821.999V176.636H835.874V209.841ZM926.129 176.636V229H912.357V176.636H926.129ZM919.413 199.614V211.068C918.3 211.568 916.913 212.045 915.254 212.5C913.595 212.932 911.857 213.284 910.038 213.557C908.22 213.83 906.516 213.966 904.925 213.966C897.402 213.966 891.482 212.42 887.163 209.33C882.845 206.216 880.686 201.25 880.686 194.432V176.568H894.391V194.432C894.391 196.455 894.732 198.057 895.413 199.239C896.118 200.42 897.232 201.273 898.754 201.795C900.3 202.295 902.357 202.545 904.925 202.545C907.311 202.545 909.652 202.295 911.947 201.795C914.243 201.295 916.732 200.568 919.413 199.614Z"/>
</svg>
